Coordinates
version=1
nRows=7
nColumns=63
inDegrees=yes

Units are S.I. units (second, meters, Newtons, ...)
If the header above contains a line with 'inDegrees', this indicates whether rotational values are in degrees (yes) or radians (no).

endheader
time	pelvis_tilt	pelvis_list	pelvis_rotation	pelvis_tx	pelvis_ty	pelvis_tz	hip_flexion_r	hip_adduction_r	hip_rotation_r	knee_angle_r	knee_angle_r_beta	ankle_angle_r	subtalar_angle_r	mtp_angle_r	hip_flexion_l	hip_adduction_l	hip_rotation_l	knee_angle_l	knee_angle_l_beta	ankle_angle_l	subtalar_angle_l	mtp_angle_l	L5_S1_Flex_Ext	L5_S1_Lat_Bending	L5_S1_axial_rotation	L4_L5_Flex_Ext	L4_L5_Lat_Bending	L4_L5_axial_rotation	L3_L4_Flex_Ext	L3_L4_Lat_Bending	L3_L4_axial_rotation	L2_L3_Flex_Ext	L2_L3_Lat_Bending	L2_L3_axial_rotation	L1_L2_Flex_Ext	L1_L2_Lat_Bending	L1_L2_axial_rotation	L1_T12_Flex_Ext	L1_T12_Lat_Bending	L1_T12_axial_rotation	Abs_r3	Abs_r2	Abs_r1	Abs_t1	Abs_t2	neck_flexion	neck_bending	neck_rotation	arm_flex_r	arm_add_r	arm_rot_r	elbow_flex_r	pro_sup_r	wrist_flex_r	wrist_dev_r	arm_flex_l	arm_add_l	arm_rot_l	elbow_flex_l	pro_sup_l	wrist_flex_l	wrist_dev_l
      3.96610169	      4.12080739	     -0.72337896	     87.62605384	      0.31873901	      1.02927783	      0.45689312	      0.17994058	     -2.54414174	     -5.28834858	      9.78635997	      0.17080420	     28.59276872	     10.82871696	      0.00000000	     -1.27279158	      1.36362806	      4.33190574	      5.34504365	      0.09328861	     25.24581222	    -11.44887350	      0.00000000	     -0.02062164	      0.12340805	      0.38013054	     -0.03829645	      0.16413271	      0.40388870	     -0.03387930	      0.30005433	      0.40388870	     -0.02356847	      0.30005433	      0.33261422	     -0.01914926	      0.25165370	      0.30885606	     -0.01178321	      0.19115907	      0.28509791	     -0.14729833	      1.39601655	      2.11417203	      0.00000000	      0.00000000	     25.73188535	      4.44303550	      3.83632578	      7.77538327	    -11.82381903	    113.04840937	     10.70173786	     10.12126590	     -6.12806387	    -19.86400088	    -26.17484364	     -9.18568104	    -23.64526968	    142.62319765	     77.28777929	     -7.33383645	      8.98817278
      3.98305085	      4.09893132	     -0.69212852	     87.72500488	      0.31871178	      1.02930627	      0.45735348	      0.18405001	     -2.57385014	     -5.48042175	      9.81785675	      0.17135393	     28.63457014	     10.97261492	      0.00000000	     -1.20034420	      1.36567533	      4.13227800	      5.49785341	      0.09595564	     25.37757845	    -11.06565638	      0.00000000	     -0.03851460	      0.11726313	      0.40162904	     -0.07152546	      0.15595996	      0.42673085	     -0.06327563	      0.28511358	      0.42673085	     -0.04401833	      0.28511358	      0.35142541	     -0.03576465	      0.23912298	      0.32632359	     -0.02200724	      0.18164059	      0.30122178	     -0.27510591	      1.32650399	      2.23374022	      0.00000000	      0.00000000	     25.41228820	      3.94485176	      3.62135821	      7.70636344	    -11.66830091	    114.02857040	     10.32249630	      8.81410329	     -5.77652119	    -19.95743963	    -25.27345973	     -8.81647463	    -25.38732238	    141.99642142	     73.34989361	     -6.74492393	      0.34882008
      4.00000000	      4.07340940	     -0.67626932	     87.88326007	      0.31858750	      1.02934211	      0.45759076	      0.18569497	     -2.59455031	     -5.62066988	      9.85457728	      0.17199482	     28.67830377	     10.89972397	      0.00000000	     -1.15105571	      1.38048079	      4.20663575	      5.59220220	      0.09760234	     25.40134016	    -10.94857210	      0.00000000	     -0.04773299	      0.11152305	      0.39203756	     -0.08864493	      0.14832566	      0.41653991	     -0.07842053	      0.27115714	      0.41653991	     -0.05455403	      0.27115714	      0.34303287	     -0.04432485	      0.22741780	      0.31853052	     -0.02727463	      0.17274920	      0.29402817	     -0.34095197	      1.26157105	      2.18039531	      0.00000000	      0.00000000	     25.12781658	      3.40448631	      3.26732027	      7.63946518	    -11.63333123	    114.05858364	     10.25235178	      8.26124666	     -5.46471205	    -19.81563125	    -24.51775837	     -8.38186645	    -27.17706654	    140.86803235	     72.21205513	     -6.50032028	     -7.76615764
      4.01694915	      4.02998816	     -0.64554538	     87.84207238	      0.31875546	      1.02942736	      0.45755539	      0.18641460	     -2.64084922	     -5.67905192	      9.92576463	      0.17323727	     28.69082619	     10.99816029	      0.00000000	     -1.19896232	      1.42062132	      4.18231070	      5.57014421	      0.09721736	     25.34614139	    -10.96651131	      0.00000000	     -0.05259787	      0.10669637	      0.40502855	     -0.09767950	      0.14190617	      0.43034283	     -0.08641303	      0.25942156	      0.43034283	     -0.06011410	      0.25942156	      0.35439998	     -0.04884238	      0.21757524	      0.32908569	     -0.03005442	      0.16527268	      0.30377141	     -0.37570129	      1.20697070	      2.25264727	      0.00000000	      0.00000000	     24.94554455	      3.12819604	      3.21681149	      7.57967574	    -11.62967549	    114.07459910	     10.26157104	      7.93842586	     -5.28478394	    -19.62739339	    -23.92993377	     -8.02097285	    -28.89251522	    139.55196710	     70.85920690	     -6.09304953	    -13.92024439
      4.03389831	      3.97578791	     -0.59003802	     87.70401467	      0.31913396	      1.02948622	      0.45724969	      0.14205698	     -2.69386185	     -5.77127194	     10.01400796	      0.17477741	     28.66712152	     11.19355048	      0.00000000	     -1.31919776	      1.47347746	      4.07852230	      5.50412887	      0.09606517	     25.29912758	    -11.04930006	      0.00000000	     -0.05542288	      0.10043762	      0.42601845	     -0.10292583	      0.13358203	      0.45264460	     -0.09105425	      0.24420402	      0.45264460	     -0.06334281	      0.24420402	      0.37276614	     -0.05146569	      0.20481239	      0.34613999	     -0.03166863	      0.15557787	      0.31951384	     -0.39588010	      1.13617041	      2.36938682	      0.00000000	      0.00000000	     24.90877913	      3.06625010	      3.31725582	      7.50897403	    -11.62352166	    114.02069719	     10.32780099	      7.73653968	     -5.17964533	    -19.35719336	    -23.51535630	     -7.74726915	    -30.68195277	    138.39568684	     70.61127284	     -5.69559892	    -17.10772576
      4.05084746	      3.94715061	     -0.47389216	     87.46385255	      0.31963102	      1.02964308	      0.45678132	      0.02705142	     -2.71806301	     -5.83775945	     10.13194378	      0.17683578	     28.55249010	     11.39012922	      0.00000000	     -1.50671591	      1.50327796	      3.96339128	      5.47822641	      0.09561309	     25.27742916	    -11.14966091	      0.00000000	     -0.06581672	      0.09867775	      0.45216025	     -0.12222823	      0.13124140	      0.48042026	     -0.10813029	      0.23992507	      0.48042026	     -0.07522193	      0.23992507	      0.39564022	     -0.06111741	      0.20122366	      0.36738020	     -0.03760767	      0.15285183	      0.33912019	     -0.47012225	      1.11626241	      2.51477966	      0.00000000	      0.00000000	     24.91873602	      3.05768491	      3.44247359	      7.40736461	    -11.57879040	    113.90141417	     10.28219921	      7.57140468	     -5.16548448	    -19.06791113	    -23.29489949	     -7.72216545	    -32.25529733	    137.51635633	     71.10897035	     -5.65029759	    -17.97306895
      4.06779661	      3.94183122	     -0.43944547	     87.18235001	      0.32004005	      1.02980529	      0.45633098	      0.01596784	     -2.78251746	     -6.46443624	     10.30317218	      0.17982428	     28.33272953	     12.42369118	      0.00000000	     -1.65552897	      1.51525873	      3.88941206	      5.34706809	      0.09332394	     25.17818069	    -11.36475441	      0.00000000	     -0.06310061	      0.10213529	      0.49124017	     -0.11718415	      0.13583993	      0.52194268	     -0.10366799	      0.24833174	      0.52194268	     -0.07211769	      0.24833174	      0.42983515	     -0.05859523	      0.20827428	      0.39913264	     -0.03605569	      0.15820756	      0.36843013	     -0.45072136	      1.15537481	      2.73213045	      0.00000000	      0.00000000	     24.85118745	      3.23722310	      3.82074978	      7.29837171	    -11.77201169	    112.48302232	     10.69765682	      8.75318322	     -5.47214695	    -18.65198663	    -23.05944921	     -7.72190776	    -34.31071810	    136.60637524	     75.68363294	     -4.46355106	    -17.74980257
